HIERARCHY
ROOT Hips
{
	OFFSET	0.00	0.00	0.00
	CHANNELS 6 Xposition Yposition Zposition Zrotation Xrotation Yrotation
	JOINT Spine
	{
		OFFSET	 0.00	0.01	 0.00
		CHANNELS 3 Zrotation Xrotation Yrotation
		JOINT Spine1
		{
			OFFSET	 0.00	 2.45913012437421	 0.00
			CHANNELS 3 Zrotation Xrotation Yrotation
            JOINT Neck
            {
                OFFSET	 0.00	 2.48462964506057	 0.00
                CHANNELS 3 Zrotation Xrotation Yrotation
                JOINT Head
                {
                    OFFSET	 0.00	 0.927524780924562	 0.00
                    CHANNELS 3 Zrotation Xrotation Yrotation
                    End Site 
                    {
                        OFFSET	 0.00	 1.14999962169752	 0.00
                    }
                }
            }
			JOINT LeftShoulder
			{
				OFFSET	 0.00	 2.48462964506057	 0.00
				CHANNELS 3 Zrotation Xrotation Yrotation
				JOINT LeftUpArm
				{
					OFFSET	 0.00	 1.24881979654096	 0.00
					CHANNELS 3 Zrotation Xrotation Yrotation
					JOINT LeftForeArm
					{
						OFFSET	 0.00	2.59758046908119	 0.00
						CHANNELS 3 Zrotation Xrotation Yrotation
						JOINT LeftHand
						{
							OFFSET	 0.00	2.45542024364365	 0.00
							CHANNELS 3 Zrotation Xrotation Yrotation
							JOINT LeftHandThumb 
							{
								OFFSET	 0.00	0.00	 0.00
								CHANNELS 3 Zrotation Xrotation Yrotation
								End Site
								{
									OFFSET	 0.00	0.00	1.00000003353624
								}
							}
							JOINT L_Wrist_End 
							{
								OFFSET	 0.00	0.99999967115358	 0.00
								CHANNELS 3 Zrotation Xrotation Yrotation
								End Site 
								{
									OFFSET	 0.00	 0.00	 0.00
								}
							}
						}
					}
				}
			}
			JOINT RightShoulder
			{
				OFFSET	 0.00	 2.48462964506057	 0.00
				CHANNELS 3 Zrotation Xrotation Yrotation
				JOINT RightUpArm
				{
					OFFSET	 0.00	 1.24881979654096	 0.00
					CHANNELS 3 Zrotation Xrotation Yrotation
					JOINT RightForeArm
					{
						OFFSET	 0.00	2.59758046908119	 0.00
						CHANNELS 3 Zrotation Xrotation Yrotation
						JOINT RightHand
						{
							OFFSET	 0.00	2.45542024364365	 0.00
							CHANNELS 3 Zrotation Xrotation Yrotation
							JOINT RightHandThumb 
							{
								OFFSET	 0.00	0.00	 0.00
								CHANNELS 3 Zrotation Xrotation Yrotation
								End Site
								{
									OFFSET	 0.00	0.00	1.00000003353624
								}
							}
							JOINT R_Wrist_End 
							{
								OFFSET	 0.00	0.99999967115358	 0.00
								CHANNELS 3 Zrotation Xrotation Yrotation
								End Site 
								{
									OFFSET	 0.00	 0.00	 0.00
								}
							}
						}
					}
				}
			}
		}
	}
	JOINT LeftUpLeg
	{
		OFFSET	 1.2719394002717	 0.00	 0.00
		CHANNELS 3 Zrotation Xrotation Yrotation
		JOINT LeftLowLeg
		{
			OFFSET	 0.00	-4.3429100912261	 0.00
			CHANNELS 3 Zrotation Xrotation Yrotation
			JOINT LeftFoot
			{
				OFFSET	 0.00	-4.48767017425826	 0.00
				CHANNELS 3 Zrotation Xrotation Yrotation
				JOINT LeftToeBase
                {
                    OFFSET	 0.00	0.00	 1.51507020887566
                    CHANNELS 3 Zrotation Xrotation Yrotation
                    End Site 
                    {
                        OFFSET	 0.00	0.00	 0.75000010571191
                    }
                }
			}
		}
	}
	JOINT RightUpLeg
	{
		OFFSET	 -1.2719393604653	 0.00	 0.00
		CHANNELS 3 Zrotation Xrotation Yrotation
		JOINT RightLowLeg
		{
			OFFSET	 0.00	-4.3429100912261	 0.00
			CHANNELS 3 Zrotation Xrotation Yrotation
			JOINT RightFoot
			{
				OFFSET	 0.00	-4.48767017425826	 0.00
				CHANNELS 3 Zrotation Xrotation Yrotation
				JOINT RightToeBase
                {
                    OFFSET	 0.00	0.00	 1.51507020887566
                    CHANNELS 3 Zrotation Xrotation Yrotation
                    End Site 
                    {
                        OFFSET	 0.00	0.00	 0.749999965609858
                    }
                }   
			}
		}
	}
}
MOTION 
Frames:	8 
Frame Time: 0.02 
  3.8976300048828123 3.3159799194335937 4.353900146484375 -48.9901 80.8812 -316.377 1.81298 29.7747 -1.39494 15.3702 10.3792 -3.82731 15.338 13.4299 -384.392 -93.5752 -84.9713 -118.953 -122.1774 2.06145 8.3065 -32.8562 17.5623 9.7281 0.0 105.952 0.0 48.0931 4.72687 24.0095 0.0 0.0 0.0 0.0 0.0 0.0 114.3069 4.03553 -19.8531 25.6893 13.0379 12.5717 0.0 29.341 0.0 -35.7925 6.41416 8.67774 0.0 0.0 0.0 0.0 0.0 0.0 26.8822 -25.9996 6.80597 0.0 131.233 0.0 -66.5929 17.43101 17.3434 0.0 99.725 0.0 -0.531475 -52.0022 16.4388 0.0 134.114 0.0 43.0896 -25.328201 34.6852 0.0 -33.6097 0.0 
  3.8073001098632813 3.3708599853515624 4.288210144042969 -46.3155 81.2555 -319.944 2.17002 30.727 -1.46379 14.9824 9.81166 -3.52801 14.4635 13.1222 -383.821 -95.0952 -85.0998 -120.247 -122.1994 2.11231 8.6601 -33.4422 17.5518 10.0038 0.0 106.096 0.0 48.8231 5.06551 23.7254 0.0 0.0 0.0 0.0 0.0 0.0 114.2414 4.29746 -20.2328 24.4909 13.565 13.1976 0.0 28.8631 0.0 -35.7378 6.62573 7.35397 0.0 0.0 0.0 0.0 0.0 0.0 28.0101 -26.0 7.3297 0.0 131.935 0.0 -66.0597 17.93757 16.7468 0.0 99.143 0.0 -0.129723 -53.4092 16.6362 0.0 135.375 0.0 43.349 -25.8853 35.6408 0.0 -32.7371 0.0 
  3.7138400268554688 3.420690002441406 4.224309997558594 -41.9388 81.3429 -325.329 2.06683 31.856 -1.35109 15.2889 9.42085 -3.40701 13.1334 12.9345 -383.084 -95.8012 -85.1483 -120.638 -122.3776 2.21238 8.45544 -34.1873 16.9888 10.7598 0.0 106.325 0.0 49.7291 5.25693 22.2891 0.0 0.0 0.0 0.0 0.0 0.0 113.7959 4.70977 -20.4786 23.2605 14.1006 13.5935 0.0 28.3999 0.0 -35.7808 6.72828 5.8368 0.0 0.0 0.0 0.0 0.0 0.0 29.1422 -25.5139 7.90556 0.0 132.551 0.0 -65.6981 18.02502 16.1634 0.0 98.961 0.0 0.59959 -54.3061 17.1281 0.0 136.558 0.0 43.5694 -26.7532 36.5589 0.0 -31.7413 0.0 
  3.6227099609375 3.470320129394531 4.1559600830078125 -38.2252 81.69 -330.188 2.17498 32.7401 -1.37815 15.0877 8.81027 -3.24176 12.045 12.899 -382.358 -95.1704 -85.2413 -119.465 -122.3721 2.04722 8.89116 -34.6836 16.7433 11.1555 0.0 106.648 0.0 50.9052 5.18796 20.7708 0.0 0.0 0.0 0.0 0.0 0.0 113.2838 5.22465 -20.7935 22.3387 14.6233 14.0867 0.0 27.9937 0.0 -35.9525 7.17451 3.70225 0.0 0.0 0.0 0.0 0.0 0.0 30.2848 -25.199 8.77079 0.0 133.207 0.0 -65.4598 17.93107 15.5627 0.0 98.367 0.0 1.51748 -55.5745 17.8341 0.0 137.78 0.0 44.0293 -27.6259 37.5316 0.0 -30.581001 0.0 
  3.529280090332031 3.51177001953125 4.090360107421875 -33.5764 81.4328 -335.854 2.53185 33.9253 -1.67904 15.0 8.46005 -3.22579 10.6171 13.0606 -381.304 -96.6726 -85.3276 -120.542 -122.627 1.82416 8.8392 -34.9743 16.1224 11.8064 0.0 107.01 0.0 51.9099 5.40307 19.2612 0.0 0.0 0.0 0.0 0.0 0.0 112.774704 5.97003 -21.2446 21.2489 15.1182 14.6742 0.0 27.5755 0.0 -35.7191 7.31302 1.36299 0.0 0.0 0.0 0.0 0.0 0.0 31.4276 -24.3537 9.22173 0.0 133.794 0.0 -65.2421 17.595459 15.0549 0.0 98.126 0.0 2.50358 -56.1203 18.1274 0.0 138.951 0.0 44.2077 -28.756699 37.9948 0.0 -29.6931 0.0 
  3.440840148925781 3.5579800415039062 4.020249938964843 -30.1535 81.7925 -340.335 3.15726 34.2664 -2.17879 14.4053 8.28798 -3.23747 9.12967 13.3978 -380.088 -96.0813 -85.4106 -119.738 -122.640305 1.52302 8.92517 -35.232 15.675 12.202 0.0 107.436 0.0 52.7182 5.52561 17.5901 0.0 0.0 0.0 0.0 0.0 0.0 112.2034 6.92391 -21.6676 20.3406 15.6325 15.2451 0.0 27.138 0.0 -35.5233 7.30222 -0.652769 0.0 0.0 0.0 0.0 0.0 0.0 32.6004 -24.1554 10.1459 0.0 134.456 0.0 -64.6205 17.12856 14.425 0.0 97.913 0.0 3.54694 -57.4458 18.4594 0.0 140.183 0.0 44.0968 -30.1818 38.0452 0.0 -28.8022 0.0 
  3.352019958496094 3.595870056152344 3.952770080566406 -25.8255 81.6635 -345.498 4.42062 34.9861 -3.1465 13.291 8.02164 -3.2182 7.67576 13.9213 -378.856 -98.148 -85.4502 -121.731 -122.8295 1.01634 8.92525 -35.1611 15.163 12.728 0.0 107.788 0.0 53.7413 6.04553 15.6529 0.0 0.0 0.0 0.0 0.0 0.0 111.9491 7.82898 -21.8683 19.3951 15.9574 15.5945 0.0 26.6111 0.0 -35.1133 7.46891 -2.29653 0.0 0.0 0.0 0.0 0.0 0.0 33.5888 -23.5951 10.5952 0.0 135.022 0.0 -63.9372 16.80967 13.9275 0.0 97.481 0.0 4.23686 -58.2073 18.0153 0.0 141.406 0.0 43.3591 -31.902699 37.3558 0.0 -28.0211 0.0 
  3.26343994140625 3.629530029296875 3.8854901123046877 -20.9389 81.168 -351.08 6.1564 35.7878 -4.43109 11.6319 7.90431 -3.15809 6.47941 14.5215 -377.856 -100.693 -85.4578 -123.988 -123.0538 0.409524 9.0996 -34.8321 14.8071 12.9842 0.0 108.205 0.0 54.531 6.67738 14.0407 0.0 0.0 0.0 0.0 0.0 0.0 111.8504 8.70228 -22.1348 18.4949 16.2959 16.1825 0.0 25.906 0.0 -34.6187 7.54438 -4.4583 0.0 0.0 0.0 0.0 0.0 0.0 34.3807 -22.7854 10.7599 0.0 135.462 0.0 -63.3731 16.33457 13.6834 0.0 97.476 0.0 4.67689 -58.5338 17.2039 0.0 142.653 0.0 42.3728 -33.7704 36.2918 0.0 -27.0648 0.0 
